# xmcd
#
# Track frame offsets:
#	150
#	12207
#	23702
#	39705
#	53575
#	66082
#	79305
#	90205
#	101695
#	117885
#	132422
#	147457
#	160475
#	176317
#	189590
#	208340
#	227945
#	243025
#	256245
#	273162
#	287170
#
# Disc length: 4086 seconds
#
# Revision: 0
# Processed by: cddbd v1.5.1PL2 Copyright (c) Steve Scherf et al.
# Submitted via: dBpowerAMP V4.0
#
DISCID=240ff415
DTITLE=Andy Williams - You Lay So Easy On My Mind/The Other Side Of Me
DYEAR=1900
DGENRE=Easy Listening
TTITLE0=01-You Lay So Easy On My Mind
TTITLE1=02-I Love You So Much It Hurts
TTITLE2=03-I Honestly Love You
TTITLE3=04-A Mi Esposa Con Amor
TTITLE4=05-Again
TTITLE5=06-Another Lonely Song
TTITLE6=07-I'll Have To Say I Love You In A Song
TTITLE7=08-I Love My Friend
TTITLE8=09-My Elusive Dreams
TTITLE9=10-Cry Softly
TTITLE10=11-The Other Side Of Me
TTITLE11=12-Quits
TTITLE12=13-Love Will Keep Us Together
TTITLE13=14-My Eyes Adored You
TTITLE14=15-The Hungry Years
TTITLE15=16-Solitaire
TTITLE16=17-Sad Eyes
TTITLE17=18-Feelings
TTITLE18=19-In My Eyes
TTITLE19=20-Mandy
TTITLE20=21-What Happens To You
EXTD=
EXTT0=
EXTT1=
EXTT2=
EXTT3=
EXTT4=
EXTT5=
EXTT6=
EXTT7=
EXTT8=
EXTT9=
EXTT10=
EXTT11=
EXTT12=
EXTT13=
EXTT14=
EXTT15=
EXTT16=
EXTT17=
EXTT18=
EXTT19=
EXTT20=
PLAYORDER=
